<svg width="1440" height="644" viewBox="0 0 1440 644" fill="none" xmlns="http://www.w3.org/2000/svg">
<path d="M1440 67.0718C1391.9 25.7913 1323.51 0 1247.64 0C1204.84 0 1164.42 8.20612 1128.68 22.7694C1091.69 37.845 1051.83 37.845 1014.83 22.7694C979.096 8.20612 938.679 0 895.879 0C853.08 0 812.662 8.20612 776.925 22.7694C739.931 37.845 700.069 37.845 663.075 22.7694C627.338 8.20612 586.92 0 544.121 0C501.321 0 460.904 8.20612 425.167 22.7694C388.173 37.845 348.311 37.845 311.316 22.7694C275.58 8.20612 235.162 0 192.363 0C116.486 0 48.0969 25.7914 0 67.0719L0 644L1440 644L1440 67.0718Z" fill="white"/>
</svg>
